G75*
%MOIN*%
%OFA0B0*%
%FSLAX25Y25*%
%IPPOS*%
%LPD*%
%AMOC8*
5,1,8,0,0,1.08239X$1,22.5*
%
%ADD10C,0.00000*%
%ADD11C,0.06900*%
%ADD12R,0.06900X0.06900*%
%ADD13C,0.15400*%
%ADD14C,0.05156*%
%ADD15C,0.07800*%
%ADD16C,0.07800*%
%ADD17C,0.05600*%
%ADD18C,0.05156*%
%ADD19C,0.06400*%
%ADD20C,0.06000*%
%ADD21C,0.10400*%
%ADD22C,0.04900*%
%ADD23R,0.07800X0.07800*%
D10*
X0001008Y0003937D02*
X0001008Y0200787D01*
X0197859Y0200787D01*
X0197859Y0003937D01*
X0001008Y0003937D01*
D11*
X0073843Y0014055D03*
X0092189Y0013701D03*
X0092189Y0023701D03*
X0075674Y0047205D03*
X0075674Y0057205D03*
X0124394Y0024016D03*
X0124394Y0014016D03*
X0135497Y0048858D03*
X0135497Y0058858D03*
X0178528Y0059764D03*
X0178528Y0069764D03*
X0137465Y0105276D03*
X0137465Y0115276D03*
D12*
X0073843Y0024055D03*
D13*
X0139985Y0022992D03*
X0168725Y0022992D03*
D14*
X0157504Y0033394D02*
X0157504Y0038150D01*
X0154355Y0043268D02*
X0154355Y0048024D01*
X0148056Y0048024D02*
X0148056Y0043268D01*
X0151205Y0038150D02*
X0151205Y0033394D01*
X0160654Y0043268D02*
X0160654Y0048024D01*
D15*
X0071638Y0185316D02*
X0071638Y0192716D01*
X0061638Y0192716D02*
X0061638Y0185316D01*
X0051638Y0185316D02*
X0051638Y0192716D01*
X0041638Y0192716D02*
X0041638Y0185316D01*
X0031638Y0185316D02*
X0031638Y0192716D01*
X0021638Y0192716D02*
X0021638Y0185316D01*
D16*
X0013686Y0171102D03*
X0043686Y0171102D03*
X0006008Y0138937D03*
X0006008Y0128937D03*
X0006008Y0118937D03*
X0006008Y0108937D03*
X0006008Y0098937D03*
X0006008Y0088937D03*
X0006008Y0078937D03*
X0020536Y0069370D03*
X0033410Y0069528D03*
X0045221Y0069173D03*
X0045221Y0039173D03*
X0033410Y0039528D03*
X0020536Y0039370D03*
X0032544Y0025630D03*
X0032544Y0015630D03*
X0050851Y0015394D03*
X0050851Y0025394D03*
X0193008Y0078937D03*
X0193008Y0088937D03*
X0193008Y0098937D03*
X0193008Y0108937D03*
X0193008Y0118937D03*
X0193008Y0128937D03*
X0193008Y0138937D03*
D17*
X0122230Y0138189D02*
X0117030Y0138189D01*
X0117030Y0148189D02*
X0122230Y0148189D01*
X0122230Y0158189D02*
X0117030Y0158189D01*
X0117030Y0168189D02*
X0122230Y0168189D01*
X0122230Y0178189D02*
X0117030Y0178189D01*
X0092230Y0178189D02*
X0087030Y0178189D01*
X0087030Y0168189D02*
X0092230Y0168189D01*
X0092230Y0158189D02*
X0087030Y0158189D01*
X0087030Y0148189D02*
X0092230Y0148189D01*
X0092230Y0138189D02*
X0087030Y0138189D01*
X0087030Y0128189D02*
X0092230Y0128189D01*
X0092230Y0118189D02*
X0087030Y0118189D01*
X0087030Y0108189D02*
X0092230Y0108189D01*
X0092230Y0098189D02*
X0087030Y0098189D01*
X0087030Y0088189D02*
X0092230Y0088189D01*
X0092230Y0078189D02*
X0087030Y0078189D01*
X0087030Y0068189D02*
X0092230Y0068189D01*
X0092230Y0058189D02*
X0087030Y0058189D01*
X0087030Y0048189D02*
X0092230Y0048189D01*
X0117030Y0048189D02*
X0122230Y0048189D01*
X0122230Y0058189D02*
X0117030Y0058189D01*
X0117030Y0068189D02*
X0122230Y0068189D01*
X0122230Y0078189D02*
X0117030Y0078189D01*
X0117030Y0088189D02*
X0122230Y0088189D01*
X0122230Y0098189D02*
X0117030Y0098189D01*
X0117030Y0108189D02*
X0122230Y0108189D01*
X0122230Y0118189D02*
X0117030Y0118189D01*
X0117030Y0128189D02*
X0122230Y0128189D01*
D18*
X0060064Y0103988D03*
X0060064Y0094594D03*
X0060064Y0084988D03*
D19*
X0018851Y0022862D02*
X0012851Y0022862D01*
X0012851Y0011862D02*
X0018851Y0011862D01*
X0061138Y0167591D02*
X0061138Y0173591D01*
X0072138Y0173591D02*
X0072138Y0167591D01*
D20*
X0188843Y0038780D03*
X0188843Y0031299D03*
X0188843Y0023425D03*
D21*
X0188843Y0012402D03*
X0188843Y0050197D03*
D22*
X0113701Y0019724D03*
X0107701Y0019724D03*
X0101701Y0019724D03*
D23*
X0193008Y0068937D03*
X0006008Y0068937D03*
M02*
