%
M48
M72
T01C0.02500
T02C0.02756
T03C0.03200
T04C0.03543
T05C0.04000
T06C0.05512
T07C0.07874
%
T01
X101701Y19724
X107701Y19724
X113701Y19724
T02
X73843Y14055
X73843Y24055
X92189Y23701
X92189Y13701
X124394Y14016
X124394Y24016
X148056Y43268
X154355Y43268
X157504Y38150
X160654Y43268
X151205Y38150
X135497Y48858
X135497Y58858
X178528Y59764
X178528Y69764
X188843Y38780
X188843Y31299
X188843Y23425
X137465Y105276
X137465Y115276
X75674Y57205
X75674Y47205
X60064Y84988
X60064Y94594
X60064Y103988
T03
X89630Y178189
X89630Y168189
X89630Y158189
X89630Y148189
X89630Y138189
X89630Y128189
X89630Y118189
X89630Y108189
X89630Y98189
X89630Y88189
X89630Y78189
X89630Y68189
X89630Y58189
X89630Y48189
X119630Y48189
X119630Y58189
X119630Y68189
X119630Y78189
X119630Y88189
X119630Y98189
X119630Y108189
X119630Y118189
X119630Y128189
X119630Y138189
X119630Y148189
X119630Y158189
X119630Y168189
X119630Y178189
X50851Y25394
X50851Y15394
X32544Y15630
X32544Y25630
T04
X20536Y39370
X33410Y39528
X45221Y39173
X45221Y69173
X33410Y69528
X20536Y69370
X13686Y171102
X43686Y171102
T05
X21638Y189016
X31638Y189016
X41638Y189016
X51638Y189016
X61638Y189016
X71638Y189016
X72138Y170591
X61138Y170591
X6008Y138937
X6008Y128937
X6008Y118937
X6008Y108937
X6008Y98937
X6008Y88937
X6008Y78937
X6008Y68937
X15851Y22862
X15851Y11862
X193008Y68937
X193008Y78937
X193008Y88937
X193008Y98937
X193008Y108937
X193008Y118937
X193008Y128937
X193008Y138937
T06
X188843Y50197
X188843Y12402
T07
X139985Y22992
X168725Y22992
M30
